<svg width="34" height="34" fill="none" xmlns="http://www.w3.org/2000/svg"><circle cx="17" cy="17" r="17" fill="#fff"/><path d="M26.257 15.962c.474.62.474 1.457 0 2.076C24.764 19.987 21.182 24 17 24c-4.182 0-7.764-4.013-9.257-5.962a1.692 1.692 0 0 1 0-2.076C9.236 14.013 12.818 10 17 10c4.182 0 7.764 4.013 9.257 5.962v0Z" stroke="#000" stroke-width="1.5" stroke-linecap="round" stroke-linejoin="round"/><path d="M17 20a3 3 0 1 0 0-6 3 3 0 0 0 0 6Z" stroke="#000" stroke-width="1.5" stroke-linecap="round" stroke-linejoin="round"/></svg>